<svg xmlns="http://www.w3.org/2000/svg" xmlns:xlink="http://www.w3.org/1999/xlink" viewBox="0 0 834.57 164.64"><defs><style>.cls-1,.cls-7{fill:none;}.cls-1{stroke:#fedf00;}.cls-1,.cls-12,.cls-2,.cls-3,.cls-7,.cls-8,.cls-9{stroke-miterlimit:10;}.cls-2,.cls-3{stroke:#dac533;}.cls-2{fill:url(#linear-gradient);}.cls-3{fill:url(#linear-gradient-2);}.cls-4{fill:#ed1c24;}.cls-5{fill:#006838;}.cls-6{fill:url(#linear-gradient-3);}.cls-7{stroke:#2c2d2d;}.cls-8{fill:#6b6c6c;stroke:#000;}.cls-12,.cls-9{stroke:#231f20;}.cls-9{fill:url(#linear-gradient-4);}.cls-10{fill:#999899;}.cls-11{fill:url(#linear-gradient-5);}.cls-12{fill:url(#linear-gradient-6);}.cls-13{fill:#ffde17;}</style><linearGradient id="linear-gradient" x1="522.22" y1="111.68" x2="591.72" y2="111.68" gradientTransform="matrix(-1, 0, 0, 1, 1172.01, 0)" gradientUnits="userSpaceOnUse"><stop offset="0" stop-color="#00623a"/><stop offset="0.09" stop-color="#06663f"/><stop offset="0.22" stop-color="#18714c"/><stop offset="0.36" stop-color="#358363"/><stop offset="0.52" stop-color="#5d9b82"/><stop offset="0.7" stop-color="#91bbaa"/><stop offset="0.88" stop-color="#cfe2da"/><stop offset="1" stop-color="#fff"/></linearGradient><linearGradient id="linear-gradient-2" x1="305.86" y1="111.68" x2="375.37" y2="111.68" gradientTransform="matrix(1, 0, 0, 1, 0, 0)" xlink:href="#linear-gradient"/><linearGradient id="linear-gradient-3" x1="446.95" y1="-104.96" x2="460.05" y2="-104.96" gradientTransform="translate(-312.26 187.87) rotate(-0.01)" gradientUnits="userSpaceOnUse"><stop offset="0" stop-color="#fff"/><stop offset="0.01" stop-color="#e5e5e5"/><stop offset="0.04" stop-color="#bdbcbc"/><stop offset="0.06" stop-color="#989697"/><stop offset="0.09" stop-color="#787676"/><stop offset="0.12" stop-color="#5d5a5b"/><stop offset="0.16" stop-color="#484445"/><stop offset="0.2" stop-color="#373334"/><stop offset="0.25" stop-color="#2c2829"/><stop offset="0.32" stop-color="#252122"/><stop offset="0.51" stop-color="#231f20"/><stop offset="0.68" stop-color="#252122"/><stop offset="0.74" stop-color="#2c2829"/><stop offset="0.79" stop-color="#373334"/><stop offset="0.82" stop-color="#484445"/><stop offset="0.85" stop-color="#5d5a5b"/><stop offset="0.88" stop-color="#787676"/><stop offset="0.9" stop-color="#989697"/><stop offset="0.92" stop-color="#bdbcbc"/><stop offset="0.94" stop-color="#e5e5e5"/><stop offset="0.95" stop-color="#fff"/></linearGradient><linearGradient id="linear-gradient-4" x1="435.64" y1="-137.74" x2="470.84" y2="-137.74" gradientTransform="translate(-312.54 187.87) rotate(-0.01)" gradientUnits="userSpaceOnUse"><stop offset="0" stop-color="#414042"/><stop offset="0.05" stop-color="#353335"/><stop offset="0.11" stop-color="#231f20"/><stop offset="0.14" stop-color="#252122"/><stop offset="0.29" stop-color="#2a2a2a"/><stop offset="0.51" stop-color="#2c2d2d"/><stop offset="0.75" stop-color="#2b2b2b"/><stop offset="0.87" stop-color="#262324"/><stop offset="0.91" stop-color="#231f20"/><stop offset="0.96" stop-color="#373537"/><stop offset="1" stop-color="#414042"/></linearGradient><linearGradient id="linear-gradient-5" x1="779.14" y1="-103.66" x2="792.24" y2="-103.66" gradientTransform="translate(-312.26 185.02) rotate(-0.01)" xlink:href="#linear-gradient-3"/><linearGradient id="linear-gradient-6" x1="767.83" y1="-136.45" x2="803.02" y2="-136.45" gradientTransform="translate(-312.54 185.02) rotate(-0.01)" xlink:href="#linear-gradient-4"/></defs><title>Asset 1</title><g id="Layer_2" data-name="Layer 2"><g id="Layer_1-2" data-name="Layer 1"><line class="cls-1" x1="57.99" y1="54.51" x2="795.12" y2="53.34"/><line class="cls-1" x1="58.17" y1="164.14" x2="795.3" y2="162.97"/></g><g id="correct_africa" data-name="correct africa"><path class="cls-2" d="M606.51,115s3.87,2.66,3.41,3.77.69,5.32,2.51,6c0,0-6.6,2.89,0,9.77,0,0-1.6,7.54,2.5,7.54,0,0-.45,4.66,2.5,5.11,0,0,2.73-.89,10-4,0,0,2.28-7.77,5.46-7.1,0,0,.23-3.33-.91-3.55s5.92-4.44,5.92-4.44,2.27-4.88-1.82-8.43,6.82-9.1,8-9.1,3.64-9.55,5.46-9.1-5.69,2.88-7.73,1.77-8.88-8.43-7.28-10-1.6-1.55-1.6-1.55-4.27-6.66-4.75-8.21-4.35.89-10.72-1.55c0,0,1.37,2.88,0,2.88s-5.91-3.11-9.55-4c0,0,1.59-4,.22-4s-13.42,4-14.33,3.11-1.82-5.33-1.36-3.11a5.43,5.43,0,0,1-.12,3.33s-4,0-3.3.89,0,5.77-8.41,11.54a3.07,3.07,0,0,1,2,1.85c.53,1.48-1.06,4.81-2,4.14s.68,3.77,0,3.55,7.5,2.67,7.5,6,1.6.89,2.51.89,10.23-6.21,11.83-1.11,4.77-1.33,5.23,1.33c0,0,5.69-1.33,5.23,1.56S607.19,109,606.51,115Z" transform="translate(-4.62)"/></g><g id="invert_africa" data-name="invert africa"><path class="cls-3" d="M349.14,115s-3.87,2.66-3.41,3.77-.68,5.32-2.5,6c0,0,6.59,2.89,0,9.77,0,0,1.59,7.54-2.5,7.54,0,0,.45,4.66-2.51,5.11,0,0-2.73-.89-10-4,0,0-2.27-7.77-5.46-7.1,0,0-.23-3.33.91-3.55s-5.91-4.44-5.91-4.44-2.28-4.88,1.82-8.43-6.83-9.1-8-9.1-3.64-9.55-5.46-9.1,5.69,2.88,7.74,1.77,8.87-8.43,7.28-10,1.59-1.55,1.59-1.55S327,85,327.5,83.47s4.35.89,10.72-1.55c0,0-1.36,2.88,0,2.88s5.92-3.11,9.56-4c0,0-1.6-4-.23-4s13.42,4,14.33,3.11,1.82-5.33,1.37-3.11a5.34,5.34,0,0,0,.12,3.33s4,0,3.29.89,0,5.77,8.42,11.54a3.07,3.07,0,0,0-2,1.85c-.54,1.48,1.06,4.81,2,4.14s-.69,3.77,0,3.55-7.51,2.67-7.51,6-1.59.89-2.5.89-10.24-6.21-11.83-1.11-4.78-1.33-5.24,1.33c0,0-5.68-1.33-5.23,1.56S348.46,109,349.14,115Z" transform="translate(-4.62)"/></g><g id="african_text" data-name="african text"><path class="cls-4" d="M39.89,148.53a8.33,8.33,0,0,1-5.3-2.1,10.35,10.35,0,0,1-2.7-5c-4.51,3-10,7.08-13.52,7.08A13.7,13.7,0,0,1,4.62,134.91c0-5.42,3-9,9.24-11.07,6.87-2.32,15.32-5.2,17.8-7.19v-2.22c0-7.86-4.06-12.4-9.91-12.4a6.57,6.57,0,0,0-5.3,2.55c-1.24,1.55-2,4-3,7.19a3.13,3.13,0,0,1-3.27,2.55c-2.14,0-5-2.21-5-4.87,0-1.55,1.47-2.88,3.72-4.43,3.27-2.32,9.8-6.42,16.23-7.75a15.76,15.76,0,0,1,9.46,3c3.94,3.32,5.75,7.09,5.75,12.84v21.37c0,5.09,1.91,6.64,3.94,6.64a9.13,9.13,0,0,0,4.06-1.21l1.12,3.1Zm-8.23-28c-2.48,1.22-7.89,3.54-10.48,4.65-4.28,1.88-6.87,4-6.87,8.08a8.13,8.13,0,0,0,8.11,8.53,15.06,15.06,0,0,0,9.24-4Z" transform="translate(-4.62)"/><path class="cls-4" d="M61,98.6v-3c0-8,2.82-16.17,9.92-22.14A23.43,23.43,0,0,1,83.49,67.6c3.83.11,7.32,1.44,9.13,3.54A3.52,3.52,0,0,1,93.29,75a9,9,0,0,1-2.7,3.54,2.61,2.61,0,0,1-3.27-.22c-2.25-2-5.41-4.54-9.13-4.54-8.33,0-8.33,11.18-8.33,19.59V98.6H81.8c.68,1,.11,3.76-1.13,4.54H69.86v32c0,8,1.24,8.08,9.69,9v3.1H53.07v-3.1c7.1-.66,7.88-1.1,7.88-8.3V103.14H53l-.46-1.22L55,98.6Z" transform="translate(-4.62)"/><path class="cls-4" d="M111.54,147.2H85.63v-3.1c7.1-.66,7.77-1.21,7.77-8.41v-23c0-7.31-.45-7.64-7-8.41v-2.77a63.49,63.49,0,0,0,15.88-4.54v12.18c4-5.76,8.68-11.85,14.31-11.85,4.17,0,6.54,2.55,6.54,5.31a7.42,7.42,0,0,1-3.83,6.09,2.24,2.24,0,0,1-2.93-.22c-1.69-1.66-3-2.77-5.07-2.77-2.37,0-6.54,3.44-9,9.08v20.82c0,7.31.57,7.86,9.24,8.52Z" transform="translate(-4.62)"/><path class="cls-4" d="M128.78,147.2v-3.1c7.1-.66,7.89-1.21,7.89-8.74V112.55c0-6.87-.34-7.31-7.1-8.42v-2.65a75.24,75.24,0,0,0,16-4.43v38.31c0,7.53.78,8.08,8.11,8.74v3.1Zm11.72-61a6.12,6.12,0,0,1-6-5.87,6,6,0,0,1,6.09-6.09,5.83,5.83,0,0,1,5.74,6.09A5.93,5.93,0,0,1,140.5,86.2Z" transform="translate(-4.62)"/><path class="cls-4" d="M202,137.24c-4.95,6.42-12.5,11.29-19.26,11.29-14.31,0-22.76-11.4-22.76-23.25,0-8.75,3.83-16,11.38-21.7,6-4.54,12.73-6.31,17.12-6.31,5.07,0,8.79,1.55,10.48,3,1.58,1.22,1.8,2,1.8,3.21,0,2.66-2.81,5-4.05,5-.57,0-1-.22-2.14-1.1a16.92,16.92,0,0,0-11.38-4.65c-7.44,0-14,6.2-14,17.71-.12,15.39,10.59,20.48,17.12,20.48,4.73,0,8.56-1.22,13.75-6.09Z" transform="translate(-4.62)"/><path class="cls-4" d="M243.81,148.53a8.28,8.28,0,0,1-5.29-2.1,10.37,10.37,0,0,1-2.71-5c-4.5,3-10,7.08-13.52,7.08a13.69,13.69,0,0,1-13.74-13.62c0-5.42,3-9,9.23-11.07,6.88-2.32,15.33-5.2,17.81-7.19v-2.22c0-7.86-4.06-12.4-9.92-12.4a6.55,6.55,0,0,0-5.29,2.55c-1.24,1.55-2,4-3,7.19a3.11,3.11,0,0,1-3.26,2.55c-2.14,0-5-2.21-5-4.87,0-1.55,1.46-2.88,3.72-4.43,3.26-2.32,9.8-6.42,16.22-7.75a15.81,15.81,0,0,1,9.47,3c3.94,3.32,5.74,7.09,5.74,12.84v21.37c0,5.09,1.92,6.64,4,6.64a9.09,9.09,0,0,0,4-1.21l1.13,3.1Zm-8.22-28c-2.48,1.22-7.89,3.54-10.48,4.65-4.28,1.88-6.87,4-6.87,8.08a8.12,8.12,0,0,0,8.11,8.53,15.08,15.08,0,0,0,9.24-4Z" transform="translate(-4.62)"/><path class="cls-4" d="M290.46,147.2v-3.1c6.53-.66,7.21-1.44,7.21-9V116.87c0-7.75-2.82-13-10.26-13-4.62,0-9,2.66-12.5,5.76v25.91c0,7.64.67,7.86,7.32,8.52v3.1H257.89v-3.1c7.44-.77,8.12-1.21,8.12-8.52V112.77c0-7.2-.79-7.53-6.88-8.52v-2.88a65.19,65.19,0,0,0,15.78-4.43v8.74c2.25-1.55,4.73-3.21,7.66-5.09,3.15-2,6.08-3.32,9.35-3.32,9,0,14.65,6.53,14.65,17.27v21c0,7.53.67,7.86,7.21,8.52v3.1Z" transform="translate(-4.62)"/></g><g id="with_text" data-name="with text"><path class="cls-5" d="M457.56,101.59c-5.75.88-6.76,2.1-9.13,8.3-3.27,8.53-8.68,23.92-13.52,38.53h-3.49c-4.51-11.85-9.13-23.36-13.52-34.76-4.17,10.18-9.24,22.47-13.75,34.76h-3.38c-4.06-13.17-8.34-26.24-13-39.52-2-6-3-6.65-8.56-7.31v-3h23.44v3c-6.76,1.11-7.22,1.66-5.64,6.75,2.59,8.53,5.64,17.61,8.34,25.91,4.51-11.29,9-22.81,13.41-35.1h3c4.17,11.52,8.79,23.47,13.52,35.43,2.48-6.75,6.08-17.6,8.23-25.68,1.46-5.76.56-6.32-7.1-7.31v-3h21.07Z" transform="translate(-4.62)"/><path class="cls-5" d="M462.06,147.2v-3.1c7.1-.66,7.89-1.21,7.89-8.74V112.55c0-6.87-.34-7.31-7.1-8.42v-2.65a75.24,75.24,0,0,0,16-4.43v38.31c0,7.53.79,8.08,8.11,8.74v3.1Zm11.72-61a6.11,6.11,0,0,1-6-5.87,6,6,0,0,1,6.08-6.09,5.83,5.83,0,0,1,5.75,6.09A5.94,5.94,0,0,1,473.78,86.2Z" transform="translate(-4.62)"/><path class="cls-5" d="M514.23,147.09a11.49,11.49,0,0,1-4.85,1.44c-7.21,0-11-4.32-11-13.17V103.14h-7.77l-.45-1.33,3-3.21h5.18V89.3c2.14-2.22,5.41-5.09,7.55-7.31l1.69.22c-.23,4.65-.34,11.07-.34,16.39h12.85c1,1.11.67,3.54-.68,4.54H507.24v28.34c0,9,3.61,10.63,6.54,10.63a16.42,16.42,0,0,0,6.87-1.77l1,2.88Z" transform="translate(-4.62)"/><path class="cls-5" d="M557.71,147.2v-3.1c6.54-.66,7.44-1.21,7.44-8.52V117.42c0-9.19-3.61-13.84-11.15-13.73a16.18,16.18,0,0,0-12,5.76v26.13c0,7.19.9,7.86,7.66,8.52v3.1H525.15v-3.1c6.54-.55,8-1.1,8-8.52V82.21c0-5.87-.34-7.31-7.88-8V71.36a70.52,70.52,0,0,0,16.78-3.76v37.75c4.06-4,10.26-8.08,16.34-8.08,9.24,0,15.66,5.65,15.66,18.93v19.49c0,7.31.9,7.86,7.44,8.41v3.1Z" transform="translate(-4.62)"/></g><g id="usb"><rect class="cls-6" x="134.68" y="77.69" width="13.1" height="10.29" transform="translate(-5.32 1.21) rotate(-0.49)"/><path class="cls-7" d="M128.31,2.83a170.51,170.51,0,0,1,23.89-.21" transform="translate(-4.62)"/><path class="cls-8" d="M128.36,22.53l1.93,0-.18-20.06a2.56,2.56,0,0,0-1.92.49Z" transform="translate(-4.62)"/><path class="cls-8" d="M151.67,22.33h-1.93l-.18-20.06a2.56,2.56,0,0,1,1.93.46Z" transform="translate(-4.62)"/><rect class="cls-9" x="123.08" y="22.42" width="35.19" height="55.28" transform="translate(-5.04 1.21) rotate(-0.49)"/><rect class="cls-10" x="130.87" y="1.68" width="18.78" height="21.39" transform="translate(-4.72 1.2) rotate(-0.49)"/><rect class="cls-11" x="466.86" y="76.09" width="13.1" height="10.29" transform="translate(-5.3 4.06) rotate(-0.49)"/><path class="cls-7" d="M460.5,1.22A170.49,170.49,0,0,1,484.39,1" transform="translate(-4.62)"/><path class="cls-8" d="M460.55,20.92h1.92L462.3.84a2.58,2.58,0,0,0-1.93.49Z" transform="translate(-4.62)"/><path class="cls-8" d="M483.85,20.72l-1.92,0L481.75.68a2.59,2.59,0,0,1,1.93.45Z" transform="translate(-4.62)"/><rect class="cls-12" x="455.27" y="20.82" width="35.19" height="55.28" transform="translate(-5.02 4.06) rotate(-0.49)"/><rect class="cls-10" x="463.06" y="0.08" width="18.78" height="21.39" transform="translate(-4.69 4.05) rotate(-0.49)"/></g><g id="tech_text" data-name="tech text"><path class="cls-13" d="M675.6,147.09a11.49,11.49,0,0,1-4.85,1.44c-7.21,0-11-4.32-11-13.17V103.14h-7.77l-.46-1.33,3-3.21h5.18V89.3c2.14-2.22,5.41-5.09,7.55-7.31l1.69.22c-.23,4.65-.34,11.07-.34,16.39h12.84c1,1.11.68,3.54-.67,4.54H668.61v28.34c0,9,3.61,10.63,6.54,10.63a16.42,16.42,0,0,0,6.87-1.77l1,2.88Z" transform="translate(-4.62)"/><path class="cls-13" d="M727.65,137.79c-7.21,8.86-15.1,10.74-18.7,10.74-13.75,0-22.09-11.07-22.09-23.8a28.16,28.16,0,0,1,7.33-19.38c4.73-5.2,10.92-8.08,16.78-8.08a17.41,17.41,0,0,1,17.24,17.16c-.11,2.22-.45,3.21-2.25,3.65-2.25.45-16.68,1.44-30.08,1.89-.34,14.83,8.9,20.92,16.9,20.92,4.62,0,8.9-1.88,13.07-5.64Zm-19.38-36.31c-5.18,0-10.25,4.76-11.83,13.73,6.31,0,12.62,0,19.27-.34,2,0,2.7-.55,2.7-2.21C718.52,106.79,714.58,101.48,708.27,101.48Z" transform="translate(-4.62)"/><path class="cls-13" d="M778.8,137.24c-5,6.42-12.51,11.29-19.27,11.29-14.31,0-22.76-11.4-22.76-23.25,0-8.75,3.83-16,11.38-21.7,6-4.54,12.73-6.31,17.13-6.31,5.07,0,8.78,1.55,10.48,3,1.57,1.22,1.8,2,1.8,3.21,0,2.66-2.82,5-4.06,5-.56,0-1-.22-2.14-1.1A16.88,16.88,0,0,0,760,102.7c-7.43,0-14,6.2-14,17.71-.11,15.39,10.59,20.48,17.13,20.48,4.73,0,8.56-1.22,13.74-6.09Z" transform="translate(-4.62)"/><path class="cls-13" d="M815.41,147.2v-3.1c6.54-.66,7.44-1.21,7.44-8.52V117.42c0-9.19-3.61-13.84-11.15-13.73a16.18,16.18,0,0,0-12,5.76v26.13c0,7.19.9,7.86,7.66,8.52v3.1H782.85v-3.1c6.54-.55,8-1.1,8-8.52V82.21c0-5.87-.34-7.31-7.89-8V71.36a70.5,70.5,0,0,0,16.79-3.76v37.75c4.06-4,10.26-8.08,16.34-8.08,9.24,0,15.66,5.65,15.66,18.93v19.49c0,7.31.9,7.86,7.44,8.41v3.1Z" transform="translate(-4.62)"/></g></g></svg>