<?xml version="1.0" encoding="utf-8"?>
<!-- Generator: Adobe Illustrator 22.0.0, SVG Export Plug-In . SVG Version: 6.00 Build 0)  -->
<svg version="1.1" id="Layer_1" xmlns="http://www.w3.org/2000/svg" xmlns:xlink="http://www.w3.org/1999/xlink" x="0px" y="0px"
	 viewBox="0 0 834.6 164.6" style="enable-background:new 0 0 834.6 164.6;" xml:space="preserve">
<style type="text/css">
	.st0{stroke:#000000;stroke-miterlimit:10;}
	.st1{fill:none;stroke:#FEDF00;stroke-miterlimit:10;}
	.st2{fill:url(#SVGID_1_);stroke:#DAC533;stroke-miterlimit:10;}
	.st3{fill:url(#SVGID_2_);stroke:#DAC533;stroke-miterlimit:10;}
	.st4{fill:#ED1C24;}
	.st5{fill:#006838;}
	.st6{fill:url(#SVGID_3_);}
	.st7{fill:none;stroke:#2C2D2D;stroke-miterlimit:10;}
	.st8{fill:#6B6C6C;stroke:#000000;stroke-miterlimit:10;}
	.st9{fill:url(#SVGID_4_);stroke:#231F20;stroke-miterlimit:10;}
	.st10{fill:#999899;}
	.st11{fill:url(#SVGID_5_);}
	.st12{fill:url(#SVGID_6_);stroke:#231F20;stroke-miterlimit:10;}
	.st13{fill:#FFDE17;}
</style>
<rect x="-9" y="-236" class="st0" width="850" height="697"/>
<title>Asset 1</title>
<g id="Layer_2_1_">
	<g id="Layer_1-2">
		<line class="st1" x1="58" y1="54.5" x2="795.1" y2="53.3"/>
		<line class="st1" x1="58.2" y1="164.1" x2="795.3" y2="163"/>
	</g>
	<g id="correct_africa">
		
			<linearGradient id="SVGID_1_" gradientUnits="userSpaceOnUse" x1="996.188" y1="54.3074" x2="1065.7015" y2="54.3074" gradientTransform="matrix(-1 0 0 -1 1641.39 166)">
			<stop  offset="0" style="stop-color:#00623A"/>
			<stop  offset="9.000000e-02" style="stop-color:#06663F"/>
			<stop  offset="0.22" style="stop-color:#18714C"/>
			<stop  offset="0.36" style="stop-color:#358363"/>
			<stop  offset="0.52" style="stop-color:#5D9B82"/>
			<stop  offset="0.7" style="stop-color:#91BBAA"/>
			<stop  offset="0.88" style="stop-color:#CFE2DA"/>
			<stop  offset="1" style="stop-color:#FFFFFF"/>
		</linearGradient>
		<path class="st2" d="M601.9,115c0,0,3.9,2.7,3.4,3.8s0.7,5.3,2.5,6c0,0-6.6,2.9,0,9.8c0,0-1.6,7.5,2.5,7.5c0,0-0.5,4.7,2.5,5.1
			c0,0,2.7-0.9,10-4c0,0,2.3-7.8,5.5-7.1c0,0,0.2-3.3-0.9-3.6s5.9-4.4,5.9-4.4s2.3-4.9-1.8-8.4s6.8-9.1,8-9.1s3.6-9.6,5.5-9.1
			s-5.7,2.9-7.7,1.8s-8.9-8.4-7.3-10s-1.6-1.6-1.6-1.6s-4.3-6.7-4.8-8.2s-4.3,0.9-10.7-1.6c0,0,1.4,2.9,0,2.9s-5.9-3.1-9.5-4
			c0,0,1.6-4,0.2-4s-13.4,4-14.3,3.1s-1.8-5.3-1.4-3.1c0.3,1.1,0.3,2.3-0.1,3.3c0,0-4,0-3.3,0.9s0,5.8-8.4,11.5c0.9,0.3,1.7,1,2,1.8
			c0.5,1.5-1.1,4.8-2,4.1s0.7,3.8,0,3.6s7.5,2.7,7.5,6s1.6,0.9,2.5,0.9s10.2-6.2,11.8-1.1s4.8-1.3,5.2,1.3c0,0,5.7-1.3,5.2,1.6
			S602.6,109,601.9,115z"/>
	</g>
	<g id="invert_africa">
		
			<linearGradient id="SVGID_2_" gradientUnits="userSpaceOnUse" x1="305.8381" y1="54.3124" x2="375.3804" y2="54.3124" gradientTransform="matrix(1 0 0 -1 -4.62 166)">
			<stop  offset="0" style="stop-color:#00623A"/>
			<stop  offset="9.000000e-02" style="stop-color:#06663F"/>
			<stop  offset="0.22" style="stop-color:#18714C"/>
			<stop  offset="0.36" style="stop-color:#358363"/>
			<stop  offset="0.52" style="stop-color:#5D9B82"/>
			<stop  offset="0.7" style="stop-color:#91BBAA"/>
			<stop  offset="0.88" style="stop-color:#CFE2DA"/>
			<stop  offset="1" style="stop-color:#FFFFFF"/>
		</linearGradient>
		<path class="st3" d="M344.5,115c0,0-3.9,2.7-3.4,3.8s-0.7,5.3-2.5,6c0,0,6.6,2.9,0,9.8c0,0,1.6,7.5-2.5,7.5c0,0,0.5,4.7-2.5,5.1
			c0,0-2.7-0.9-10-4c0,0-2.3-7.8-5.5-7.1c0,0-0.2-3.3,0.9-3.6s-5.9-4.4-5.9-4.4s-2.3-4.9,1.8-8.4s-6.8-9.1-8-9.1s-3.6-9.6-5.5-9.1
			s5.7,2.9,7.7,1.8s8.9-8.4,7.3-10s1.6-1.6,1.6-1.6s4.3-6.7,4.8-8.2s4.4,0.9,10.7-1.6c0,0-1.4,2.9,0,2.9s5.9-3.1,9.6-4
			c0,0-1.6-4-0.2-4s13.4,4,14.3,3.1s1.8-5.3,1.4-3.1c-0.3,1.1-0.3,2.3,0.1,3.3c0,0,4,0,3.3,0.9s0,5.8,8.4,11.5c-0.9,0.3-1.7,1-2,1.8
			c-0.5,1.5,1.1,4.8,2,4.1s-0.7,3.8,0,3.6s-7.5,2.7-7.5,6s-1.6,0.9-2.5,0.9s-10.2-6.2-11.8-1.1s-4.8-1.3-5.2,1.3
			c0,0-5.7-1.3-5.2,1.6S343.8,109,344.5,115z"/>
	</g>
	<g id="african_text">
		<path class="st4" d="M35.3,148.5c-2-0.1-3.8-0.8-5.3-2.1c-1.3-1.4-2.3-3.1-2.7-5c-4.5,3-10,7.1-13.5,7.1
			c-7.5,0-13.7-6.1-13.7-13.6c0-5.4,3-9,9.2-11.1c6.9-2.3,15.3-5.2,17.8-7.2v-2.2c0-7.9-4.1-12.4-9.9-12.4c-2.1,0-4,0.9-5.3,2.6
			c-1.2,1.6-2,4-3,7.2c-0.3,1.6-1.7,2.6-3.3,2.6c-2.1,0-5-2.2-5-4.9c0-1.6,1.5-2.9,3.7-4.4c3.3-2.3,9.8-6.4,16.2-7.8
			c3.4,0,6.7,1,9.5,3c3.9,3.3,5.8,7.1,5.8,12.8v21.4c0,5.1,1.9,6.6,3.9,6.6c1.4-0.1,2.8-0.5,4.1-1.2l1.1,3.1L35.3,148.5z M27,120.5
			c-2.5,1.2-7.9,3.5-10.5,4.7c-4.3,1.9-6.9,4-6.9,8.1c-0.2,4.5,3.2,8.3,7.7,8.5c0.1,0,0.3,0,0.4,0c3.4-0.2,6.7-1.6,9.2-4V120.5z"/>
		<path class="st4" d="M56.4,98.6v-3c0-8,2.8-16.2,9.9-22.1c3.5-3.2,7.9-5.2,12.6-5.9c3.8,0.1,7.3,1.4,9.1,3.5c1,1,1.2,2.6,0.7,3.9
			c-0.6,1.4-1.5,2.6-2.7,3.5c-1,0.7-2.4,0.6-3.3-0.2c-2.3-2-5.4-4.5-9.1-4.5c-8.3,0-8.3,11.2-8.3,19.6v5.2h11.9
			c0.7,1,0.1,3.8-1.1,4.5H65.2v32c0,8,1.2,8.1,9.7,9v3.1H48.5v-3.1c7.1-0.7,7.9-1.1,7.9-8.3v-32.7h-8l-0.5-1.2l2.5-3.3H56.4z"/>
		<path class="st4" d="M106.9,147.2H81v-3.1c7.1-0.7,7.8-1.2,7.8-8.4v-23c0-7.3-0.4-7.6-7-8.4v-2.8c5.5-0.8,10.8-2.3,15.9-4.5v12.2
			c4-5.8,8.7-11.8,14.3-11.8c4.2,0,6.5,2.6,6.5,5.3c-0.1,2.6-1.6,4.9-3.8,6.1c-0.9,0.7-2.1,0.6-2.9-0.2c-1.7-1.7-3-2.8-5.1-2.8
			c-2.4,0-6.5,3.4-9,9.1v20.8c0,7.3,0.6,7.9,9.2,8.5L106.9,147.2z"/>
		<path class="st4" d="M124.2,147.2v-3.1c7.1-0.7,7.9-1.2,7.9-8.7v-22.8c0-6.9-0.3-7.3-7.1-8.4v-2.7c5.5-0.9,10.8-2.4,16-4.4v38.3
			c0,7.5,0.8,8.1,8.1,8.7v3.1L124.2,147.2z M135.9,86.2c-3.2-0.1-5.9-2.6-6-5.9c-0.1-3.3,2.6-6,5.9-6.1c0.1,0,0.1,0,0.2,0
			c3.2,0,5.8,2.7,5.7,5.9c0,0.1,0,0.1,0,0.2C141.7,83.5,139.1,86.1,135.9,86.2z"/>
		<path class="st4" d="M197.4,137.2c-4.9,6.4-12.5,11.3-19.3,11.3c-14.3,0-22.8-11.4-22.8-23.3c0-8.8,3.8-16,11.4-21.7
			c6-4.5,12.7-6.3,17.1-6.3c5.1,0,8.8,1.6,10.5,3c1.6,1.2,1.8,2,1.8,3.2c0,2.7-2.8,5-4.1,5c-0.6,0-1-0.2-2.1-1.1
			c-3.1-2.9-7.1-4.6-11.4-4.7c-7.4,0-14,6.2-14,17.7c-0.1,15.4,10.6,20.5,17.1,20.5c4.7,0,8.6-1.2,13.8-6.1L197.4,137.2z"/>
		<path class="st4" d="M239.2,148.5c-2-0.1-3.8-0.8-5.3-2.1c-1.4-1.4-2.3-3.1-2.7-5c-4.5,3-10,7.1-13.5,7.1
			c-7.6,0-13.7-6.1-13.7-13.6c0-5.4,3-9,9.2-11.1c6.9-2.3,15.3-5.2,17.8-7.2v-2.2c0-7.9-4.1-12.4-9.9-12.4c-2.1,0-4,0.9-5.3,2.6
			c-1.2,1.6-2,4-3,7.2c-0.3,1.6-1.7,2.7-3.3,2.6c-2.1,0-5-2.2-5-4.9c0-1.6,1.5-2.9,3.7-4.4c3.3-2.3,9.8-6.4,16.2-7.8
			c3.4,0,6.7,1,9.5,3c3.9,3.3,5.7,7.1,5.7,12.8v21.4c0,5.1,1.9,6.6,4,6.6c1.4-0.1,2.8-0.5,4-1.2l1.1,3.1L239.2,148.5z M231,120.5
			c-2.5,1.2-7.9,3.5-10.5,4.7c-4.3,1.9-6.9,4-6.9,8.1c-0.2,4.5,3.2,8.3,7.7,8.5c0.1,0,0.3,0,0.4,0c3.4-0.2,6.7-1.6,9.2-4L231,120.5z
			"/>
		<path class="st4" d="M285.8,147.2v-3.1c6.5-0.7,7.2-1.4,7.2-9v-18.2c0-7.8-2.8-13-10.3-13c-4.6,0-9,2.7-12.5,5.8v25.9
			c0,7.6,0.7,7.9,7.3,8.5v3.1h-24.3v-3.1c7.4-0.8,8.1-1.2,8.1-8.5v-22.8c0-7.2-0.8-7.5-6.9-8.5v-2.9c5.4-0.8,10.7-2.3,15.8-4.4v8.7
			c2.3-1.6,4.7-3.2,7.7-5.1c3.1-2,6.1-3.3,9.4-3.3c9,0,14.6,6.5,14.6,17.3v21c0,7.5,0.7,7.9,7.2,8.5v3.1L285.8,147.2z"/>
	</g>
	<g id="with_text">
		<path class="st5" d="M452.9,101.6c-5.8,0.9-6.8,2.1-9.1,8.3c-3.3,8.5-8.7,23.9-13.5,38.5h-3.5c-4.5-11.9-9.1-23.4-13.5-34.8
			c-4.2,10.2-9.2,22.5-13.8,34.8h-3.4c-4.1-13.2-8.3-26.2-13-39.5c-2-6-3-6.7-8.6-7.3v-3H398v3c-6.8,1.1-7.2,1.7-5.6,6.8
			c2.6,8.5,5.6,17.6,8.3,25.9c4.5-11.3,9-22.8,13.4-35.1h3c4.2,11.5,8.8,23.5,13.5,35.4c2.5-6.8,6.1-17.6,8.2-25.7
			c1.5-5.8,0.6-6.3-7.1-7.3v-3h21.1L452.9,101.6z"/>
		<path class="st5" d="M457.4,147.2v-3.1c7.1-0.7,7.9-1.2,7.9-8.7v-22.8c0-6.9-0.3-7.3-7.1-8.4v-2.7c5.5-0.9,10.8-2.4,16-4.4v38.3
			c0,7.5,0.8,8.1,8.1,8.7v3.1L457.4,147.2z M469.2,86.2c-3.2-0.1-5.9-2.6-6-5.9c-0.1-3.3,2.6-6,5.9-6.1c0.1,0,0.1,0,0.2,0
			c3.2,0,5.8,2.7,5.8,5.9c0,0.1,0,0.1,0,0.2C475,83.5,472.4,86.1,469.2,86.2z"/>
		<path class="st5" d="M509.6,147.1c-1.5,0.8-3.1,1.3-4.9,1.4c-7.2,0-11-4.3-11-13.2v-32.2H486l-0.5-1.3l3-3.2h5.2v-9.3
			c2.1-2.2,5.4-5.1,7.5-7.3l1.7,0.2c-0.2,4.7-0.3,11.1-0.3,16.4h12.9c1,1.1,0.7,3.5-0.7,4.5h-12.2v28.3c0,9,3.6,10.6,6.5,10.6
			c2.4-0.1,4.7-0.7,6.9-1.8l1,2.9L509.6,147.1z"/>
		<path class="st5" d="M553.1,147.2v-3.1c6.5-0.7,7.4-1.2,7.4-8.5v-18.2c0-9.2-3.6-13.8-11.2-13.7c-4.6,0.1-9,2.2-12,5.8v26.1
			c0,7.2,0.9,7.9,7.7,8.5v3.1h-24.5v-3.1c6.5-0.6,8-1.1,8-8.5V82.2c0-5.9-0.3-7.3-7.9-8v-2.8c5.7-0.6,11.4-1.8,16.8-3.8v37.8
			c4.1-4,10.3-8.1,16.3-8.1c9.2,0,15.7,5.7,15.7,18.9v19.5c0,7.3,0.9,7.9,7.4,8.4v3.1L553.1,147.2z"/>
	</g>
	<g id="usb">
		
			<linearGradient id="SVGID_3_" gradientUnits="userSpaceOnUse" x1="446.5912" y1="273.0257" x2="459.693" y2="273.0257" gradientTransform="matrix(1 -8.726535e-03 -8.726535e-03 -1 -314.129 359.8038)">
			<stop  offset="0" style="stop-color:#FFFFFF"/>
			<stop  offset="1.000000e-02" style="stop-color:#E5E5E5"/>
			<stop  offset="4.000000e-02" style="stop-color:#BDBCBC"/>
			<stop  offset="6.000000e-02" style="stop-color:#989697"/>
			<stop  offset="9.000000e-02" style="stop-color:#787676"/>
			<stop  offset="0.12" style="stop-color:#5D5A5B"/>
			<stop  offset="0.16" style="stop-color:#484445"/>
			<stop  offset="0.2" style="stop-color:#373334"/>
			<stop  offset="0.25" style="stop-color:#2C2829"/>
			<stop  offset="0.32" style="stop-color:#252122"/>
			<stop  offset="0.51" style="stop-color:#231F20"/>
			<stop  offset="0.68" style="stop-color:#252122"/>
			<stop  offset="0.74" style="stop-color:#2C2829"/>
			<stop  offset="0.79" style="stop-color:#373334"/>
			<stop  offset="0.82" style="stop-color:#484445"/>
			<stop  offset="0.85" style="stop-color:#5D5A5B"/>
			<stop  offset="0.88" style="stop-color:#787676"/>
			<stop  offset="0.9" style="stop-color:#989697"/>
			<stop  offset="0.92" style="stop-color:#BDBCBC"/>
			<stop  offset="0.94" style="stop-color:#E5E5E5"/>
			<stop  offset="0.95" style="stop-color:#FFFFFF"/>
		</linearGradient>
		<polygon class="st6" points="130,77.7 143.1,77.6 143.2,87.9 130.1,88 		"/>
		<path class="st7" d="M123.7,2.8c7.9-0.6,15.9-0.7,23.9-0.2"/>
		<path class="st8" d="M123.7,22.5h1.9l-0.2-20.1c-0.7-0.1-1.4,0.1-1.9,0.5L123.7,22.5z"/>
		<path class="st8" d="M147.1,22.3h-1.9l-0.2-20.1c0.7-0.1,1.4,0.1,1.9,0.5L147.1,22.3z"/>
		
			<linearGradient id="SVGID_4_" gradientUnits="userSpaceOnUse" x1="435.273" y1="305.8007" x2="470.4727" y2="305.8007" gradientTransform="matrix(1 -8.726535e-03 -8.726535e-03 -1 -314.129 359.8062)">
			<stop  offset="0" style="stop-color:#414042"/>
			<stop  offset="5.000000e-02" style="stop-color:#353335"/>
			<stop  offset="0.11" style="stop-color:#231F20"/>
			<stop  offset="0.14" style="stop-color:#252122"/>
			<stop  offset="0.29" style="stop-color:#2A2A2A"/>
			<stop  offset="0.51" style="stop-color:#2C2D2D"/>
			<stop  offset="0.75" style="stop-color:#2B2B2B"/>
			<stop  offset="0.87" style="stop-color:#262324"/>
			<stop  offset="0.91" style="stop-color:#231F20"/>
			<stop  offset="0.96" style="stop-color:#373537"/>
			<stop  offset="1" style="stop-color:#414042"/>
		</linearGradient>
		<polygon class="st9" points="118.2,22.6 153.4,22.3 153.9,77.6 118.7,77.9 		"/>
		
			<rect x="126.3" y="1.7" transform="matrix(1 -8.552009e-03 8.552009e-03 1 -0.1009 1.1605)" class="st10" width="18.8" height="21.4"/>
		
			<linearGradient id="SVGID_5_" gradientUnits="userSpaceOnUse" x1="778.771" y1="271.7177" x2="791.8727" y2="271.7177" gradientTransform="matrix(1 -8.726535e-03 -8.726535e-03 -1 -314.1334 359.8039)">
			<stop  offset="0" style="stop-color:#FFFFFF"/>
			<stop  offset="1.000000e-02" style="stop-color:#E5E5E5"/>
			<stop  offset="4.000000e-02" style="stop-color:#BDBCBC"/>
			<stop  offset="6.000000e-02" style="stop-color:#989697"/>
			<stop  offset="9.000000e-02" style="stop-color:#787676"/>
			<stop  offset="0.12" style="stop-color:#5D5A5B"/>
			<stop  offset="0.16" style="stop-color:#484445"/>
			<stop  offset="0.2" style="stop-color:#373334"/>
			<stop  offset="0.25" style="stop-color:#2C2829"/>
			<stop  offset="0.32" style="stop-color:#252122"/>
			<stop  offset="0.51" style="stop-color:#231F20"/>
			<stop  offset="0.68" style="stop-color:#252122"/>
			<stop  offset="0.74" style="stop-color:#2C2829"/>
			<stop  offset="0.79" style="stop-color:#373334"/>
			<stop  offset="0.82" style="stop-color:#484445"/>
			<stop  offset="0.85" style="stop-color:#5D5A5B"/>
			<stop  offset="0.88" style="stop-color:#787676"/>
			<stop  offset="0.9" style="stop-color:#989697"/>
			<stop  offset="0.92" style="stop-color:#BDBCBC"/>
			<stop  offset="0.94" style="stop-color:#E5E5E5"/>
			<stop  offset="0.95" style="stop-color:#FFFFFF"/>
		</linearGradient>
		<polygon class="st11" points="462.2,76.2 475.3,76 475.4,86.3 462.3,86.4 		"/>
		<path class="st7" d="M455.9,1.2c7.9-0.6,15.9-0.7,23.9-0.2"/>
		<path class="st8" d="M455.9,20.9h1.9l-0.2-20.1c-0.7-0.1-1.4,0.1-1.9,0.5L455.9,20.9z"/>
		<path class="st8" d="M479.2,20.7h-1.9l-0.2-20c0.7-0.1,1.4,0.1,1.9,0.4L479.2,20.7z"/>
		
			<linearGradient id="SVGID_6_" gradientUnits="userSpaceOnUse" x1="767.4628" y1="304.4927" x2="802.6624" y2="304.4927" gradientTransform="matrix(1 -8.726535e-03 -8.726535e-03 -1 -314.1334 359.8063)">
			<stop  offset="0" style="stop-color:#414042"/>
			<stop  offset="5.000000e-02" style="stop-color:#353335"/>
			<stop  offset="0.11" style="stop-color:#231F20"/>
			<stop  offset="0.14" style="stop-color:#252122"/>
			<stop  offset="0.29" style="stop-color:#2A2A2A"/>
			<stop  offset="0.51" style="stop-color:#2C2D2D"/>
			<stop  offset="0.75" style="stop-color:#2B2B2B"/>
			<stop  offset="0.87" style="stop-color:#262324"/>
			<stop  offset="0.91" style="stop-color:#231F20"/>
			<stop  offset="0.96" style="stop-color:#373537"/>
			<stop  offset="1" style="stop-color:#414042"/>
		</linearGradient>
		<polygon class="st12" points="450.4,21 485.6,20.7 486.1,76 450.9,76.3 		"/>
		
			<rect x="458.4" y="0.1" transform="matrix(1 -8.552009e-03 8.552009e-03 1 -7.511836e-02 4.0013)" class="st10" width="18.8" height="21.4"/>
	</g>
	<g id="tech_text">
		<path class="st13" d="M671,147.1c-1.5,0.8-3.1,1.3-4.8,1.4c-7.2,0-11-4.3-11-13.2v-32.2h-7.8l-0.5-1.3l3-3.2h5.2v-9.3
			c2.1-2.2,5.4-5.1,7.5-7.3l1.7,0.2c-0.2,4.7-0.3,11.1-0.3,16.4h12.8c1,1.1,0.7,3.5-0.7,4.5H664v28.3c0,9,3.6,10.6,6.5,10.6
			c2.4-0.1,4.7-0.7,6.9-1.8l1,2.9L671,147.1z"/>
		<path class="st13" d="M723,137.8c-7.2,8.9-15.1,10.7-18.7,10.7c-13.8,0-22.1-11.1-22.1-23.8c-0.1-7.2,2.5-14.1,7.3-19.4
			c4.7-5.2,10.9-8.1,16.8-8.1c9.5,0.1,17.1,7.7,17.2,17.2c-0.1,2.2-0.5,3.2-2.3,3.7c-2.3,0.4-16.7,1.4-30.1,1.9
			c-0.3,14.8,8.9,20.9,16.9,20.9c4.6,0,8.9-1.9,13.1-5.6L723,137.8z M703.7,101.5c-5.2,0-10.3,4.8-11.8,13.7c6.3,0,12.6,0,19.3-0.3
			c2,0,2.7-0.6,2.7-2.2C713.9,106.8,710,101.5,703.7,101.5z"/>
		<path class="st13" d="M774.2,137.2c-5,6.4-12.5,11.3-19.3,11.3c-14.3,0-22.8-11.4-22.8-23.3c0-8.8,3.8-16,11.4-21.7
			c6-4.5,12.7-6.3,17.1-6.3c5.1,0,8.8,1.6,10.5,3c1.6,1.2,1.8,2,1.8,3.2c0,2.7-2.8,5-4.1,5c-0.6,0-1-0.2-2.1-1.1
			c-3.1-2.9-7.1-4.6-11.4-4.7c-7.4,0-14,6.2-14,17.7c-0.1,15.4,10.6,20.5,17.1,20.5c4.7,0,8.6-1.2,13.7-6.1L774.2,137.2z"/>
		<path class="st13" d="M810.8,147.2v-3.1c6.5-0.7,7.4-1.2,7.4-8.5v-18.2c0-9.2-3.6-13.8-11.2-13.7c-4.6,0.1-9,2.2-12,5.8v26.1
			c0,7.2,0.9,7.9,7.7,8.5v3.1h-24.5v-3.1c6.5-0.6,8-1.1,8-8.5V82.2c0-5.9-0.3-7.3-7.9-8v-2.8c5.7-0.6,11.4-1.8,16.8-3.8v37.8
			c4.1-4,10.3-8.1,16.3-8.1c9.2,0,15.7,5.7,15.7,18.9v19.5c0,7.3,0.9,7.9,7.4,8.4v3.1L810.8,147.2z"/>
	</g>
</g>
</svg>
